<?xml version="1.0" standalone="no"?><!DOCTYPE svg PUBLIC "-//W3C//DTD SVG 1.1//EN" "http://www.w3.org/Graphics/SVG/1.1/DTD/svg11.dtd"><svg t="1608882607025" class="icon" viewBox="0 0 1024 1024" version="1.1" xmlns="http://www.w3.org/2000/svg" p-id="7361" xmlns:xlink="http://www.w3.org/1999/xlink" width="200" height="200"><defs><style type="text/css"></style></defs><path d="M884.784 342.464h-768a16 16 0 0 1-16-16v-192a16 16 0 0 1 16-16h768a16 16 0 0 1 16 16v192a16 16 0 0 1-16 16z m-752-32h736v-160h-736v160zM884.784 630.464h-152a16 16 0 1 1 0-32h136v-160h-736v160h360a16 16 0 1 1 0 32h-376a16 16 0 0 1-16-16v-192a16 16 0 0 1 16-16h768a16 16 0 0 1 16 16v192a16 16 0 0 1-16 16zM884.784 918.464h-768a16 16 0 0 1-16-16v-192a16 16 0 0 1 16-16h312v32h-296v160h736v-160h-72v-32h88a16 16 0 0 1 16 16v192a16 16 0 0 1-16 16z" fill="#333333" p-id="7362"></path><path d="M564.784 246.464h-320a16 16 0 1 1 0-32h320a16 16 0 1 1 0 32zM793.856 806.464H431.696a47.856 47.856 0 0 1-42.704-26.064 47.808 47.808 0 0 1 3.68-49.904L573.76 478c8.992-12.544 23.568-20.016 39.008-20.016s30.016 7.488 39.008 20.032l181.088 252.496c10.528 14.704 11.952 33.824 3.68 49.904a47.808 47.808 0 0 1-42.688 26.048z m-375.168-57.328a15.728 15.728 0 0 0-1.216 16.64c2.8 5.44 8.112 8.688 14.24 8.688h362.16a15.744 15.744 0 0 0 14.24-8.688 15.76 15.76 0 0 0-1.216-16.64l-181.12-252.48c-6.096-8.496-19.904-8.496-26 0l-181.088 252.48z" fill="#333333" p-id="7363"></path><path d="M612.784 694.464a16 16 0 0 1-16-16v-144a16 16 0 1 1 32 0v144a16 16 0 0 1-16 16zM612.784 758.464a16 16 0 0 1-16-16v-16a16 16 0 1 1 32 0v16a16 16 0 0 1-16 16z" fill="#333333" p-id="7364"></path></svg>