<?xml version="1.0" standalone="no"?><!DOCTYPE svg PUBLIC "-//W3C//DTD SVG 1.1//EN" "http://www.w3.org/Graphics/SVG/1.1/DTD/svg11.dtd"><svg t="1608260950712" class="icon" viewBox="0 0 1024 1024" version="1.1" xmlns="http://www.w3.org/2000/svg" p-id="16090" xmlns:xlink="http://www.w3.org/1999/xlink" width="200" height="200"><defs><style type="text/css"></style></defs><path d="M733.876706 15.058824H245.338353c-15.375059 0.120471-30.162824-0.030118-40.357647 10.134588-6.113882 6.113882-9.216 14.802824-9.216 25.856V135.529412H116.148706c-3.388235 0-6.686118-0.135529-9.86353-0.271059-13.477647-0.496941-27.361882-1.084235-37.225411 8.432941-5.857882 5.616941-8.824471 13.522824-8.824471 23.506824v813.492706C60.235294 1003.188706 65.189647 1024 101.089882 1024h629.805177C768 1024 768 1000.990118 768 980.690824V903.529412h94.102588C881.001412 903.529412 903.529412 894.147765 903.529412 849.483294V174.727529L733.876706 15.058824zM722.823529 46.004706L865.957647 180.705882H752.338824c-12.318118 0-29.515294-7.243294-29.515295-19.06447V46.004706z m15.058824 934.686118c0 4.035765 0 9.712941-0.391529 12.830117-1.249882 0.180706-3.312941 0.361412-6.595765 0.361412H101.089882c-7.137882 0-9.517176-0.933647-9.487058-0.647529-0.331294-0.662588-1.249882-3.312941-1.249883-12.544V167.198118c0-0.692706 0.030118-1.249882 0.075294-1.656471 3.162353-0.632471 9.938824-0.361412 14.667294-0.165647 3.553882 0.120471 7.273412 0.271059 11.053177 0.271059H210.823529v668.566588C210.823529 860.581647 237.447529 888.470588 262.610824 888.470588H737.882353v92.220236zM862.102588 873.411765h-599.491764C245.790118 873.411765 225.882353 852.163765 225.882353 834.213647V51.049412c0-3.011765 0.421647-4.336941 0.331294-4.457412 2.56-1.430588 12.242824-1.430588 19.094588-1.415529H707.764706v116.464941C707.764706 182.061176 730.804706 195.764706 752.338824 195.764706h115.621647c1.987765 0 3.779765-0.120471 5.451294-0.301177v654.034824C873.411765 873.411765 867.403294 873.411765 862.102588 873.411765z" p-id="16091" fill="#ffffff"></path><path d="M791.762824 436.705882H346.563765c-0.828235 0-1.551059 0.466824-2.349177 0.527059a18.868706 18.868706 0 0 0-16.835764-10.330353 19.245176 19.245176 0 0 0 0 38.490353c8.372706 0 15.299765-5.857882 17.92-13.342117 0.421647 0.030118 0.813176-0.286118 1.264941-0.286118h445.199059c8.448 0 11.038118-3.312941 11.038117-7.529412s-2.605176-7.529412-11.038117-7.529412zM791.762824 662.588235H346.563765c-0.828235 0-1.551059 0.466824-2.349177 0.527059a18.868706 18.868706 0 0 0-16.835764-10.330353 19.245176 19.245176 0 0 0 0 38.490353c8.372706 0 15.299765-5.857882 17.92-13.342118 0.421647 0.030118 0.813176-0.286118 1.264941-0.286117h445.199059c8.448 0 11.038118-3.312941 11.038117-7.529412s-2.605176-7.529412-11.038117-7.529412zM791.762824 240.941176H346.563765c-0.828235 0-1.551059 0.466824-2.349177 0.527059a18.868706 18.868706 0 0 0-16.835764-10.330353 19.245176 19.245176 0 0 0 0 38.490353c8.372706 0 15.299765-5.857882 17.92-13.342117 0.421647 0.030118 0.813176-0.286118 1.264941-0.286118h445.199059c8.448 0 11.038118-3.312941 11.038117-7.529412s-2.605176-7.529412-11.038117-7.529412z" p-id="16092" fill="#ffffff"></path></svg>