<?xml version="1.0" encoding="utf-8"?>
<svg version="1.1" xmlns:xlink="http://www.w3.org/1999/xlink" width="17px" height="11px" xmlns="http://www.w3.org/2000/svg">
  <g transform="matrix(1 0 0 1 -1403 -22 )">
    <path d="M 15.29931640625 5.10888671875  C 15.29931640625 5.10888671875  12.510986328125 0.393554687499996  7.896728515625 0.3935546875  C 3.282470703125 0.3935546875  0.78857421875 5.150634765625  0.78857421875 5.150634765625  C 0.78857421875 5.150634765625  4.029541015625 9.91650390625  8.0966796875 9.91650390625  C 12.163818359375 9.91650390625  15.29931640625 5.10888671875  15.29931640625 5.10888671875  Z M 11.4391681617299 5.1539306640625  C 11.4391681617299 7.04207638763507  9.93369229610301 8.58586307887597  8.046142578125 8.63330078125  C 8.01700060704736 8.63403317422349  7.98785058456662 8.6343994140625  7.95869941172987 8.6343994140625  C 6.03648959884223 8.6343994140625  4.47823066172987 7.07614047695014  4.47823066172987 5.1539306640625  C 4.47823066172987 3.23172085117486  6.03648959884223 1.6734619140625  7.95869941172987 1.6734619140625  C 7.98785058456662 1.6734619140625  8.01700060704736 1.6738281539015  8.046142578125 1.674560546875  C 9.93369229610301 1.72199824924903  11.4391681617299 3.26578494048993  11.4391681617299 5.1539306640625  Z M 10.247802734375 5.155029296875  L 5.840087890625 5.155029296875  C 5.91358153559142 3.9918307044212  6.8784272811779 3.08602228091778  8.0439453125 3.08602228091778  C 9.2094633438221 3.08602228091778  10.1743090894086 3.9918307044212  10.247802734375 5.155029296875  Z M 5.848876953125 5.1396484375  L 10.260986328125 5.1396484375  C 10.2585640150603 5.72469042883932  10.025673161519 6.28520739837938  9.61279296875 6.69970703125  C 9.20118239356696 7.11664059051407  8.63971427431888 7.35132411531857  8.0538330078125 7.35132411531857  C 7.46795174130612 7.35132411531857  6.90648362205804 7.11664059051407  6.494873046875 6.69970703125  C 6.08279827730279 6.28485075687421  5.85071494584314 5.72437740539002  5.848876953125 5.1396484375  Z " fill-rule="nonzero" fill="#ffffff" stroke="none" transform="matrix(1 0 0 1 1403 22 )" />
  </g>
</svg>