<?xml version="1.0" standalone="no"?><!DOCTYPE svg PUBLIC "-//W3C//DTD SVG 1.1//EN" "http://www.w3.org/Graphics/SVG/1.1/DTD/svg11.dtd"><svg t="1608271771252" class="icon" viewBox="0 0 1024 1024" version="1.1" xmlns="http://www.w3.org/2000/svg" p-id="4644" xmlns:xlink="http://www.w3.org/1999/xlink" width="200" height="200"><defs><style type="text/css"></style></defs><path d="M784.7936 241.8688H239.2064c-29.9008 0-54.0672 24.1664-54.0672 54.0672v322.9696c0 29.9008 24.1664 54.0672 54.0672 54.0672h545.3824c29.9008 0 54.0672-24.1664 54.0672-54.0672V296.1408c0.2048-29.9008-23.9616-54.272-53.8624-54.272z m-183.9104 234.496L452.608 561.9712c-12.6976 7.3728-28.672-1.8432-28.672-16.5888v-171.2128c0-14.7456 15.9744-23.9616 28.672-16.5888l148.2752 85.6064c12.6976 7.3728 12.6976 25.8048 0 33.1776zM651.0592 782.1312H372.9408c-14.1312 0-25.6-11.4688-25.6-25.6s11.4688-25.6 25.6-25.6h278.1184c14.1312 0 25.6 11.4688 25.6 25.6s-11.4688 25.6-25.6 25.6z" p-id="4645" fill="#ffffff"></path></svg>