<?xml version="1.0" encoding="utf-8"?>
<svg version="1.1" xmlns:xlink="http://www.w3.org/1999/xlink" width="24px" height="23px" xmlns="http://www.w3.org/2000/svg">
  <g transform="matrix(1 0 0 1 -1290 -26 )">
    <path d="M 2.55929687500001 21.18171875  C 2.55925781250001 21.6392578125  2.18843750000001 22.010078125  1.7332421875 22.010078125  C 1.275859375 22.010078125  0.904882812499999 21.63921875  0.904882812499999 21.1816796875  C 0.904882812499999 18.3521875  1.73578125 17.1059375  3.368359375 14.4897265625  C 2.949375 13.8900390625  2.6315234375 13.243515625  2.424375 12.5607421875  C 1.8175390625 10.58265625  1.96203125 8.58640625  2.272734375 7.47988281250001  C 2.7375 5.81589843750001  3.524921875 4.525234375  4.68078125 3.53902343750001  C 5.7475390625 2.629921875  7.1369921875 1.97859375000001  8.9285546875 1.54996093750001  C 11.96515625 0.824023437500007  16.015546875 0.767382812500006  21.402421875 0.767382812500006  L 22.8328125 0.767382812500006  C 23.0712109375 0.767382812500006  23.299921875 0.870898437500005  23.4565234375 1.05269531250001  L 23.461328125 1.0563671875  L 23.4661328125 1.06714843750001  C 23.625078125 1.2537890625  23.69 1.49703125000001  23.649140625 1.73902343750001  C 22.9291796875 5.90496093750001  21.802109375 9.33164062500001  20.304375 11.9203515625  C 19.0136328125 14.148984375  17.431484375 15.7926171875  15.6038671875 16.8015234375  C 14.16140625 17.601015625  12.5768359375 18.004296875  10.900859375 18.004296875  C 10.5901171875 18.004296875  10.2771484375 17.992265625  9.97375 17.9645703125  C 8.56503906250001 17.843046875  7.4235546875 17.47328125  6.7132421875 17.183125  C 6.38828125000001 17.0495703125  6.0630078125 16.8881640625  5.7523828125 16.7015625  C 5.36468750000001 16.469296875  5.22988281250001 15.962265625  5.46347656250001 15.569765625  C 5.61523437500001 15.3193359375  5.884921875 15.1652734375  6.17621093750001 15.1652734375  C 6.32550781250001 15.1652734375  6.47 15.20625  6.59765625 15.2808203125  C 6.8409375 15.4253125  7.08886718750001 15.5493359375  7.3394140625 15.651640625  C 7.97996093750001 15.914140625  9.29710937500001 16.3572265625  10.8864453125 16.3572265625  C 12.2831640625 16.3572265625  13.6026953125 16.0187890625  14.8019140625 15.3554296875  C 18.1731640625 13.4916796875  20.53796875 9.1413671875  21.8405859375 2.4216796875  L 21.481953125 2.4216796875  C 10.6215625 2.4216796875  5.33578125 2.65648437500001  3.864453125 7.9276953125  C 3.6646484375 8.6465625  3.46953125 10.3273828125  4.006484375 12.0791796875  C 4.10656336769226 12.4011756409949  4.23722392984952 12.7128564774233  4.3966796875 13.0099609375  C 4.93609375 12.3055859375  5.5236328125 11.6325390625  6.1448828125 11.00875  C 7.5391015625 9.61578125  9.11882812500001 8.438203125  10.7226171875 7.598984375  C 12.3120703125 6.763359375  13.8121875 6.3227734375  15.059453125 6.3227734375  C 15.51453125 6.3227734375  15.8855078125 6.6935546875  15.8855078125 7.148671875  C 15.8855078125 7.605078125  15.51453125 7.9770703125  15.059453125 7.9770703125  C 14.091484375 7.9770703125  12.822421875 8.36234375  11.4860546875 9.063125  C 10.0362890625 9.8192578125  8.5939453125 10.8994140625  7.31285156250001 12.1766796875  C 5.53800781250001 13.9502734375  2.55929687500001 16.16328125  2.55929687500001 21.18171875  Z " fill-rule="nonzero" fill="#ffffff" stroke="none" transform="matrix(1 0 0 1 1290 26 )" />
  </g>
</svg>