<?xml version="1.0" standalone="no"?><!DOCTYPE svg PUBLIC "-//W3C//DTD SVG 1.1//EN" "http://www.w3.org/Graphics/SVG/1.1/DTD/svg11.dtd"><svg t="1608883134381" class="icon" viewBox="0 0 1024 1024" version="1.1" xmlns="http://www.w3.org/2000/svg" p-id="15731" xmlns:xlink="http://www.w3.org/1999/xlink" width="200" height="200"><defs><style type="text/css"></style></defs><path d="M707.3 560.93333333c-15.4 0.1-30.8 0.3-46.1 0.2-4.7 0-6.6 1.5-7.5 6.3-4.1 22-8.8 43.8-12.8 65.8-1 5.6-3.8 6-8.4 6.1-4.7 0.1-7.3-0.8-8.4-6.1-4.1-21.7-8.7-43.3-13.2-64.9-0.3-1.5-1-2.9-3-4.5-0.7 2.1-1.3 4.3-2 6.4-3.9 12.4-3.9 12.4-17.5 9.9-1.7-9.6-3.4-19.5-5.2-29.3-0.5-0.1-0.9-0.2-1.4-0.3-0.6 1.5-1.5 3-1.9 4.6-1.9 8.2-4.2 16.3-5.4 24.6-1 7.3-4.4 9.9-11.4 8.6-1.4-0.3-2.8-0.3-4.7-0.4-2-13.2-4-26.3-6-39.4h-2.5c-4.6 44.3-9.1 88.6-13.7 132.5-1 0.5-1.4 0.8-1.8 0.8-12.8-0.2-12.4-0.2-13.3-13.3-3-43.6-6.3-87.2-9.5-130.7-2-27.8-4-55.5-6-83.3-0.1-1.1-0.4-2.2-2.2-3.3-5.4 46.6-10.8 93.2-16.3 141-2.9 0-5.9-0.3-8.9 0.1-4.5 0.5-5.7-1.7-6-5.8-1.3-14.8-2.9-29.6-4.5-44.4-0.2-2.2-0.9-4.4-3-6.5-2.8 35.5-5.7 71.1-8.6 107H442c-3.4-28.7-6.7-57.4-10.1-86.1-0.6-0.1-1.2-0.2-1.7-0.3-1 3.4-2.1 6.8-2.9 10.3-1.1 4.7-2.1 9.4-3.2 14-0.9 3.9-1 8-7.2 7.6-5.6-0.3-9.2-0.9-10.3-7.7-1.6-10-4.6-19.9-7.1-30.1-1.5 0.6-2.5 0.8-2.6 1.2-3.1 9.9-10.6 10.3-19.3 9.9-13.2-0.6-26.4-0.3-39.6-0.4v-14.4c13.7 0.1 27.4 0.5 41.1 0.3 2 0 4.6-2 5.9-3.8 2.5-3.5 4.8-7.3 6.2-11.3 2.3-6.9 7-8.1 12.8-6.1 2.3 0.8 4.9 3.4 5.7 5.8 2.1 6.3 3.3 12.9 6.6 19.5 3.4-14.6 6.9-29.2 10.4-44.3 2.3 0 4.4 0.1 6.5 0 6-0.3 8.1 2.6 8.6 8.5 1.1 13.3 2.9 26.5 4.4 39.7h2.5c2.9-36.1 5.8-72.3 8.7-107.9 1.2-0.6 1.6-1 2.1-1 11.8-0.9 12-1 13.4 10.7 2 17.2 3.5 34.4 5.4 51.6 0.3 2.8 0.9 5.7 2.9 8.7 0.8-5.5 1.8-10.9 2.5-16.4l15-131.7c0.8-7.4 2.5-8 15-5.4 5.3 74.2 10.7 148.5 16 222.9 0.7 0 1.4 0.1 2.1 0.1 3.7-35.6 7.4-71.3 11.1-107.2H557c3 20.4 6 40.9 9.1 61.4l1.8 0.3c0.8-2.2 1.9-4.4 2.4-6.7 1.7-7.2 3.7-14.4 4.8-21.8 0.8-5.7 4-6 8.5-5.8 4.7 0.1 7.4 1.1 8.1 6.6 1.2 10.3 3.4 20.6 5.1 30.9 0.6 0.1 1.3 0.2 1.9 0.3 1-2.7 2.5-5.4 3-8.2 0.9-5.8 4.3-6.8 9.6-6.6 5.1 0.2 7 2.2 7.9 7.1 3.2 17.5 6.9 34.8 10.5 52.2 0.5 2.4 1.2 4.8 1.9 7.2h2.1c3.2-16 6.4-32 10-49.5h63.8c-0.2 4.6-0.2 9.4-0.2 14.2z" fill="#43474C" p-id="15732"></path><path d="M759.5 274.43333333C691.2 206.13333333 601.6 171.93333333 512 171.93333333s-179.2 34.2-247.5 102.5c-136.7 136.7-136.7 358.3 0 495 68.3 68.4 157.9 102.5 247.5 102.5s179.2-34.2 247.5-102.5c136.7-136.7 136.7-358.3 0-495z m-38.7 456.3C665 786.53333333 590.9 817.23333333 512 817.23333333c-67.1 0-130.8-22.3-182.7-63.3l92.1-80.6c-22.9-15-41.9-35.4-55.1-59.5l-93.2 81.6c-83.9-115.4-73.9-278.4 30.1-382.4 55.8-55.8 129.9-86.5 208.8-86.5 76.5 0 148.5 28.9 203.7 81.5l-104.5 91.4c22 16.2 39.8 37.6 51.7 62.4l103.3-90.4c26.8 45.1 41 96.6 41 150.4 0.1 79-30.6 153.1-86.4 208.9z" fill="#43474C" p-id="15733"></path></svg>