<?xml version="1.0" standalone="no"?><!DOCTYPE svg PUBLIC "-//W3C//DTD SVG 1.1//EN" "http://www.w3.org/Graphics/SVG/1.1/DTD/svg11.dtd"><svg t="1608883171542" class="icon" viewBox="0 0 1024 1024" version="1.1" xmlns="http://www.w3.org/2000/svg" p-id="16338" xmlns:xlink="http://www.w3.org/1999/xlink" width="200" height="200"><defs><style type="text/css"></style></defs><path d="M512 176a479.936 479.936 0 0 0-439.808 672h70.976a413.44 413.44 0 0 1-47.168-192 416 416 0 1 1 784.832 192h70.976A479.936 479.936 0 0 0 512 176z" fill="#43474C" p-id="16339"></path><path d="M656 404.224a32.32 32.32 0 0 0-43.776 11.648l-224 384.576c-8.832 15.104-3.584 34.56 11.776 43.328s34.88 3.584 43.776-11.648l224-384.576a31.68 31.68 0 0 0-11.776-43.328zM480 496a96 96 0 1 0-192.064 0.064A96 96 0 0 0 480 496z m-96 32a32 32 0 1 1 0.128-64.128A32 32 0 0 1 384 528zM672 656a96 96 0 1 0 0.064 192.064 96 96 0 0 0-0.064-192.064z m0 128a32 32 0 1 1 0.128-64.128 32 32 0 0 1-0.128 64.128z" fill="#43474C" p-id="16340"></path></svg>