<?xml version="1.0" standalone="no"?><!DOCTYPE svg PUBLIC "-//W3C//DTD SVG 1.1//EN" "http://www.w3.org/Graphics/SVG/1.1/DTD/svg11.dtd"><svg t="1608881784074" class="icon" viewBox="0 0 1024 1024" version="1.1" xmlns="http://www.w3.org/2000/svg" p-id="2557" xmlns:xlink="http://www.w3.org/1999/xlink" width="200" height="200"><defs><style type="text/css"></style></defs><path d="M727.328 868.912H643.12l-9.736-18.064H406.616l-9.72 18.064h-84.232c-16.328 0-29.48 12.696-29.48 28.328s13.152 28.32 29.48 28.32h414.664c16.336 0 29.544-12.688 29.544-28.32s-13.208-28.328-29.544-28.328zM898 113.952H142.072c-48.848 0-75.616 27.864-75.616 74.768v550.064c0 46.904 26.76 74.64 75.616 74.64H897.92c48.856 0 75.624-27.736 75.624-74.72V188.72c0-46.84-26.76-74.704-75.544-74.768zM756.024 416.288a40 40 0 0 1-1.512 1.8L595.744 595.304a36.24 36.24 0 0 1-49.632 3.008L430.92 500.016l-89 90.64c-14.256 14.376-38.408 14.832-53.248 1.024v-0.032a32.912 32.912 0 0 1-0.688-48.16L408.16 424.136a34.368 34.368 0 0 1 46.528-0.856l113.848 103.144 130.896-147.072a38.08 38.08 0 0 1 51.208-4.024 29 29 0 0 1 5.384 40.96z" p-id="2558" fill="#43474C"></path></svg>