<?xml version="1.0" standalone="no"?><!DOCTYPE svg PUBLIC "-//W3C//DTD SVG 1.1//EN" "http://www.w3.org/Graphics/SVG/1.1/DTD/svg11.dtd"><svg t="1608882005104" class="icon" viewBox="0 0 1024 1024" version="1.1" xmlns="http://www.w3.org/2000/svg" p-id="1143" xmlns:xlink="http://www.w3.org/1999/xlink" width="200" height="200"><defs><style type="text/css"></style></defs><path d="M129.604 838.804l178.211-11.627a56.165 56.165 0 0 0 36.068-16.322L833.17 321.568c21.928-21.928 21.928-57.512 0-79.453L711.628 120.587c-21.928-21.928-57.512-21.928-79.44 0L142.97 609.805a56.11 56.11 0 0 0-16.349 36.371L115.92 825.19c-0.456 7.732 5.965 14.126 13.684 13.615z m502.584-633.806c21.942-21.928 57.512-21.928 79.44 0l37.103 37.103c21.928 21.928 21.928 57.512 0 79.44l-401.88 401.893-116.543-116.543 401.88-401.893z m-452.64 556.189l5.303-88.83a56.131 56.131 0 0 1 8.534-26.554l114.596 114.61a56.222 56.222 0 0 1-26.485 8.658l-88.263 5.758c-7.733 0.497-14.154-5.91-13.684-13.642z m706.467 103.452h-748.03c-15.258 0-27.616 12.359-27.616 27.617s12.358 27.617 27.616 27.617h748.03c15.258 0 27.616-12.359 27.616-27.617s-12.372-27.617-27.616-27.617z" fill="#43474C" p-id="1144"></path></svg>