<?xml version="1.0" standalone="no"?><!DOCTYPE svg PUBLIC "-//W3C//DTD SVG 1.1//EN" "http://www.w3.org/Graphics/SVG/1.1/DTD/svg11.dtd"><svg t="1608882134527" class="icon" viewBox="0 0 1024 1024" version="1.1" xmlns="http://www.w3.org/2000/svg" p-id="1143" xmlns:xlink="http://www.w3.org/1999/xlink" width="200" height="200"><defs><style type="text/css"></style></defs><path d="M838.22 756.41H187.78a89.1 89.1 0 0 1-89.1-89.1V198.54a89.1 89.1 0 0 1 89.1-89.1h650.44a89.1 89.1 0 0 1 89.1 89.1v468.77a89.1 89.1 0 0 1-89.1 89.1zM852 671.35V194.5a9 9 0 0 0-9-8.95H183a9 9 0 0 0-9 8.95v476.85a9 9 0 0 0 9 8.94h660a9 9 0 0 0 9-8.94zM324.87 832.52h376.26q37.86 0 37.86 37.86v0.39q0 37.86-37.86 37.86H324.87q-37.86 0-37.86-37.86v-0.39q0-37.86 37.86-37.86z" fill="#43474C" p-id="1144"></path><path d="M281.02 337.78h11.97q31.68 0 31.68 31.68V572.5q0 31.68-31.68 31.68h-11.97q-31.68 0-31.68-31.68V369.46q0-31.68 31.68-31.68zM437.67 451.95h-0.01q37.67 0 37.67 37.67v76.89q0 37.67-37.67 37.67h0.01q-37.67 0-37.67-37.67v-76.89q0-37.67 37.67-37.67zM588.34 261.67h-0.01q37.67 0 37.67 37.67v267.17q0 37.67-37.67 37.67h0.01q-37.67 0-37.67-37.67V299.34q0-37.67 37.67-37.67zM739 413.89h-0.01q37.67 0 37.67 37.67V566.5q0 37.67-37.67 37.67h0.01q-37.67 0-37.67-37.67V451.56q0-37.67 37.67-37.67z" fill="#43474C" p-id="1145"></path></svg>