<?xml version="1.0" standalone="no"?><!DOCTYPE svg PUBLIC "-//W3C//DTD SVG 1.1//EN" "http://www.w3.org/Graphics/SVG/1.1/DTD/svg11.dtd"><svg t="1608882730910" class="icon" viewBox="0 0 1024 1024" version="1.1" xmlns="http://www.w3.org/2000/svg" p-id="8113" xmlns:xlink="http://www.w3.org/1999/xlink" width="200" height="200"><defs><style type="text/css"></style></defs><path d="M704.431707 64.214511 163.638941 64.214511c-40.523949 0-73.491805 32.904411-73.491805 73.355705l0 749.724263c0 40.446177 32.967856 73.355705 73.491805 73.355705l696.735421 0c40.509622 0 73.477478-32.909527 73.477478-73.355705L933.85184 286.065248 704.431707 64.214511 704.431707 64.214511zM867.937618 275.140431 722.92592 275.140431 722.92592 130.128733 867.937618 275.140431zM894.303102 881.553731c0 19.47147-20.052708 39.548738-39.548738 39.548738l-691.115424 1.506307c-19.512403 0-33.943067-21.584598-33.943067-41.055045L129.695874 143.311986c0-19.476587 20.036335-39.548738 39.548738-39.548738l514.13257 0 0 210.92592 210.92592 0L894.303102 881.553731 894.303102 881.553731zM749.291404 472.884121l0-39.548738L261.525342 433.335383l0 39.548738L749.291404 472.884121zM749.291404 617.895819l0-39.548738L261.525342 578.347081l0 39.548738L749.291404 617.895819zM749.291404 749.724263l0-39.548738L261.525342 710.175525l0 39.548738L749.291404 749.724263z" p-id="8114"></path></svg>