<?xml version="1.0" encoding="utf-8"?>
<svg version="1.1" xmlns:xlink="http://www.w3.org/1999/xlink" width="19px" height="20px" xmlns="http://www.w3.org/2000/svg">
  <g transform="matrix(1 0 0 1 -18 -258 )">
    <path d="M 8.3111808902439 4.99951394678492  C 7.33989874168515 4.96513738359202  6.38974170731707 5.62019820399113  6.23651978824834 6.5250167405765  L 6.95141174501109 8.25498636363636  C 7.5604840022173 8.76725396895787  8.59544336585366 9.24630223946785  9.04131312195122 9.7436166075388  L 4.89522435144124 9.7436166075388  L 4.69205655099778 9.7436166075388  C 4.09667252993348 9.7436166075388  3.6091776075388 10.2555892239468  3.6091776075388 10.8828992239468  C 3.6091776075388 11.3400281818182  3.86921082815965 11.7373441685144  4.24038812971175 11.9180083370288  C 3.91344426053215 12.1147149223947  3.69294523725055 12.4854372949002  3.69294523725055 12.908280421286  C 3.69294523725055 13.4396763636364  4.04036754656319 13.888477804878  4.50988455099778 14.013799113082  C 4.34612161308204 14.2144085144124  4.24771726385809 14.4726298669623  4.24771726385809 14.7552438359202  C 4.24771726385809 15.3825538137472  4.73467327716186 15.8945264523282  5.33007884700665 15.8945264523282  L 5.36474131374723 15.8945264523282  C 5.17474441019956 16.1006497117517  5.05620650665188 16.3821518403548  5.05620650665188 16.6913594456763  C 5.05620650665188 17.3186467405765  5.54370142904656 17.8306420620843  6.13805075055432 17.8306420620843  L 8.25058620399113 17.8306420620843  L 10.9105861197339 17.8306420620843  L 10.9458952815964 17.8306420620843  L 11.8882058215078 16.8376016851441  L 14.8749124645233 16.5112171618625  L 14.8749124645233 17.9679895121951  L 18.8997903558758 17.9679895121951  L 18.8997903558758 9.17893325942351  L 14.8749124855876 9.17893323725055  L 14.8749124855876 10.2855637694013  L 13.4906338669623 10.2844746119734  C 12.7842135088692 7.60838920177384  8.76129723059867 7.82526791574279  8.3111808902439 4.99951394678492  Z M 5.75747491574279 4.88671796008869  L 5.28159883037694 5.3949012195122  L 6.92351793348115 9.36722152993348  L 4.25189918070953 9.36722152993348  L 3.0326768691796 6.42617558758315  C 2.09092678713969 6.54566536585366  1.12384810421286 6.31755470066519  0.36687833037694 5.64760869179601  C -0.0658421197339247 3.96826223946785  0.0162225875831483 2.65834478935698  0.302662227272727 1.49827740576497  C 0.480587643015521 1.42680137472284  0.657456789356984 1.35532534368071  0.834843274944568 1.28412159645233  C 1.1554280421286 2.16958485587583  1.47659481596452 3.05674993348115  1.79657600665188 3.94225858093126  C 2.83573883592018 4.00406833702882  3.60120177827051 3.6964944789357  4.33609795454546 2.92212538802661  C 4.01598742904656 2.03634445676275  3.69488532261641 1.14942898004435  3.37430055543237 0.263670731707317  C 3.55170861086475 0.192466984478936  3.72864242461197 0.122352394678492  3.906503172949 0.0508990465631929  C 4.85407344789357 0.715580776053215  5.74268733370288 1.63405917960089  6.48333901441242 3.19121563192905  C 6.39237156430155 3.83391  6.13126054656319 4.40630824833703  5.75747491574279 4.88671796008869  Z M 8.17324234368071 18.3127989356985  L 8.61596490354767 19.3800609312639  C 9.09076319179601 20.2156271175166  10.9258695133038 20.0306062971175  11.1090546640798 18.9771403104213  L 10.8337596197339 18.3127989356984  L 8.17324234368071 18.3127989356985  Z " fill-rule="nonzero" fill="#000000" stroke="none" transform="matrix(1 0 0 1 18 258 )" />
  </g>
</svg>