<?xml version="1.0" standalone="no"?><!DOCTYPE svg PUBLIC "-//W3C//DTD SVG 1.1//EN" "http://www.w3.org/Graphics/SVG/1.1/DTD/svg11.dtd"><svg t="1608882851171" class="icon" viewBox="0 0 1024 1024" version="1.1" xmlns="http://www.w3.org/2000/svg" p-id="10051" xmlns:xlink="http://www.w3.org/1999/xlink" width="200" height="200"><defs><style type="text/css"></style></defs><path d="M512 403.2c14.933333 0 23.466667 10.666667 23.466667 32v232.533333c0 21.333333-8.533333 32-23.466667 32-14.933333 0-23.466667-10.666667-23.466667-32V435.2c0-21.333333 8.533333-32 23.466667-32zM512 740.266667c14.933333 0 23.466667 8.533333 23.466667 23.466666 0 14.933333-8.533333 23.466667-23.466667 23.466667-14.933333 0-23.466667-8.533333-23.466667-23.466667 0-14.933333 8.533333-23.466667 23.466667-23.466666z" fill="#43474C" p-id="10052"></path><path d="M774.4 209.066667h-44.8V256h44.8v605.866667H245.333333V256h46.933334V209.066667h-44.8c-25.6 0-46.933333 21.333333-46.933334 49.066666v603.733334c0 25.6 21.333333 49.066667 46.933334 49.066666h526.933333c25.6 0 46.933333-21.333333 46.933333-49.066666V258.133333c-2.133333-27.733333-21.333333-49.066667-46.933333-49.066666z" fill="#43474C" p-id="10053"></path><path d="M684.8 113.066667H339.2c-23.466667 0-44.8 19.2-44.8 44.8V298.666667c0 23.466667 19.2 44.8 44.8 44.8h347.733333c23.466667 0 44.8-19.2 44.8-44.8V157.866667c0-25.6-21.333333-44.8-46.933333-44.8z m-2.133333 181.333333H341.333333V160h341.333334v134.4z" fill="#43474C" p-id="10054"></path></svg>