<?xml version="1.0" standalone="no"?><!DOCTYPE svg PUBLIC "-//W3C//DTD SVG 1.1//EN" "http://www.w3.org/Graphics/SVG/1.1/DTD/svg11.dtd"><svg t="1608882239247" class="icon" viewBox="0 0 1071 1024" version="1.1" xmlns="http://www.w3.org/2000/svg" p-id="1434" xmlns:xlink="http://www.w3.org/1999/xlink" width="209.1796875" height="200"><defs><style type="text/css"></style></defs><path d="M765.21 142.182H709.7v-72.62a37.562 37.562 0 1 0-75.124 0v72.62h-97.66v-72.62a37.562 37.562 0 1 0-75.125 0v72.62h-97.66v-72.62a37.562 37.562 0 0 0-75.125 0v72.62h-52.503A204.754 204.754 0 0 0 32 346.686v440.727a204.754 204.754 0 0 0 204.504 204.504h266.44a37.562 37.562 0 0 0 0-75.124H236.586a129.547 129.547 0 0 1-129.38-129.38V346.686a129.547 129.547 0 0 1 129.38-129.38h52.504v41.735a37.562 37.562 0 0 0 75.124 0v-41.735h97.66v41.735a37.562 37.562 0 0 0 75.125 0v-41.735h97.66v41.735a37.562 37.562 0 0 0 75.125 0v-41.735h55.508a129.547 129.547 0 0 1 129.38 129.38v56.26a37.562 37.562 0 0 0 75.124 0v-56.344a204.754 204.754 0 0 0-204.588-204.42z" fill="#43474C" p-id="1435"></path><path d="M544.762 451.609h-83.47a37.562 37.562 0 0 0 0 75.124h83.47a37.562 37.562 0 1 0 0-75.124z m-287.975 75.124h83.471a37.562 37.562 0 1 0 0-75.124h-83.47a37.562 37.562 0 0 0 0 75.124z m0 187.142H436.25a37.562 37.562 0 0 0 0-75.124H256.787a37.562 37.562 0 0 0 0 75.124zM799.015 503.945a236.974 236.974 0 0 0-236.974 236.974 236.974 236.974 0 0 0 236.974 236.974 236.974 236.974 0 0 0 236.974-236.974 236.974 236.974 0 0 0-236.974-236.974z m47.078 255.922a37.562 37.562 0 0 1-15.61 30.467l-86.81 62.436a37.562 37.562 0 0 1-43.822-61.017l71.201-51.168V610.788a37.562 37.562 0 0 1 75.124 0v149.08z" fill="#43474C" p-id="1436"></path></svg>